<svg class="animated" id="freepik_stories-kids-studying-from-home" xmlns="http://www.w3.org/2000/svg" viewBox="0 0 500 500" version="1.1" xmlns:xlink="http://www.w3.org/1999/xlink" xmlns:svgjs="http://svgjs.com/svgjs"><style>svg#freepik_stories-kids-studying-from-home:not(.animated) .animable {opacity: 0;}svg#freepik_stories-kids-studying-from-home.animated #freepik--Bubble--inject-66 {animation: 1s 1 forwards cubic-bezier(.36,-0.01,.5,1.38) slideUp,6s Infinite  linear heartbeat;animation-delay: 0s,1s;}            @keyframes slideUp {                0% {                    opacity: 0;                    transform: translateY(30px);                }                100% {                    opacity: 1;                    transform: inherit;                }            }                    @keyframes heartbeat {                0% {                    transform: scale(1);                }                10% {                    transform: scale(1.1);                }                30% {                    transform: scale(1);                }                40% {                    transform: scale(1);                }                50% {                    transform: scale(1.1);                }                60% {                    transform: scale(1);                }                100% {                    transform: scale(1);                }            }        </style><g id="freepik--background-simple--inject-66" style="transform-origin: 245.34606170654297px 224.3838348388672px;" class="animable"><path d="M189.59,179c68.1,15.12,164-158.32,222.72-44.62C460.18,227.17,363.52,303.79,287,300.05,209.29,296.25,137.2,419,81.31,303.86c-17.1-35.22-24.77-89.86.83-125.75C122.87,121,148.07,169.81,189.59,179Z" style="fill: #30BCED; transform-origin: 245.34606170654297px 224.3838348388672px;" id="el234hh7siheu" class="animable"></path><g id="eln27rtpe145"><path d="M189.59,179c68.1,15.12,164-158.32,222.72-44.62C460.18,227.17,363.52,303.79,287,300.05,209.29,296.25,137.2,419,81.31,303.86c-17.1-35.22-24.77-89.86.83-125.75C122.87,121,148.07,169.81,189.59,179Z" style="fill: rgb(255, 255, 255); opacity: 0.9; transform-origin: 245.34606170654297px 224.3838348388672px;" class="animable" id="el75qzawtld6m"></path></g></g><g id="freepik--Shadow--inject-66" style="transform-origin: 250px 416.23998260498047px;" class="animable"><ellipse id="freepik--path--inject-66" cx="250" cy="416.24" rx="193.89" ry="11.32" style="fill: rgb(245, 245, 245); transform-origin: 250px 416.24px;" class="animable"></ellipse></g><g id="freepik--Bubble--inject-66" style="transform-origin: 304.8871765136719px 143.89910888671875px;" class="animable"><path d="M296.32,113.72a18.6,18.6,0,0,0-24.83-10.18c-8.52,3.76-13.14,14.69-9.93,23.42a18.51,18.51,0,0,0,9,10.17,10.45,10.45,0,0,1,4.26,3.75l2.64,4.22a7,7,0,0,0,8.48,2.8l6.66-2.63a7,7,0,0,0,4.28-7.84l-1-5.06a9.82,9.82,0,0,1,.53-5.33A18.5,18.5,0,0,0,296.32,113.72Z" style="fill: #30BCED; transform-origin: 279.0710868835449px 125.16495513916016px;" id="elttmna08qfso" class="animable"></path><path d="M286.82,156.32a3.13,3.13,0,0,1-1.24-.26,3.06,3.06,0,0,1-1.66-1.71,3.11,3.11,0,0,1,1.75-4l8.83-3.49a3.1,3.1,0,0,1,4,1.75,3.07,3.07,0,0,1,0,2.38,3.13,3.13,0,0,1-1.71,1.66L288,156.1A3,3,0,0,1,286.82,156.32Zm8.82-8.71a2,2,0,0,0-.77.15L286,151.25a2.1,2.1,0,0,0-.07,3.89,2.07,2.07,0,0,0,1.62,0l8.83-3.48a2.09,2.09,0,0,0,1.15-1.13,2,2,0,0,0,0-1.61,2.13,2.13,0,0,0-2-1.34Z" style="fill: rgb(38, 50, 56); transform-origin: 291.2268009185791px 151.48554372787476px;" id="elt6xqzdt4ej" class="animable"></path><path d="M291.32,161.7a2.09,2.09,0,0,1-.78-.16,2,2,0,0,1-1-1.07l-.15-.39a1.93,1.93,0,0,1,1.09-2.51l5.51-2.18a2,2,0,0,1,2.52,1.09l.15.39a1.95,1.95,0,0,1-1.09,2.51L292,161.56A1.9,1.9,0,0,1,291.32,161.7Zm5.35-5.45a1,1,0,0,0-.34.07l-5.51,2.18a.93.93,0,0,0-.53,1.21l.15.39a.94.94,0,0,0,1.22.53l5.51-2.18a.94.94,0,0,0,.52-.5.92.92,0,0,0,0-.71l-.15-.39A1,1,0,0,0,296.67,156.25Z" style="fill: rgb(38, 50, 56); transform-origin: 294.0223340988159px 158.48474264144897px;" id="eleiuhxljycxe" class="animable"></path><path d="M274.91,131.46a3.75,3.75,0,1,1,3.48-5.13l1.38,3.49-3.49,1.37A3.67,3.67,0,0,1,274.91,131.46Zm0-6.5a2.75,2.75,0,1,0,1,5.3l2.56-1-1-2.55A2.74,2.74,0,0,0,274.9,125Z" style="fill: rgb(255, 255, 255); transform-origin: 275.4614782333374px 127.70972537994385px;" id="ellzdiknnkkg9" class="animable"></path><polygon points="285.97 148.24 278.48 129.25 285.37 126.53 292.86 145.52 291.93 145.89 284.8 127.83 279.77 129.82 286.9 147.87 285.97 148.24" style="fill: rgb(255, 255, 255); transform-origin: 285.6699981689453px 137.38500213623047px;" id="elkey6l2ahngf" class="animable"></polygon><path d="M284.8,127.83l-1.37-3.49a3.75,3.75,0,1,1,4.86,2.11Zm2.11-7.62a2.79,2.79,0,0,0-1,.2,2.74,2.74,0,0,0-1.54,3.57l1,2.55,2.55-1a2.75,2.75,0,0,0-1-5.31Z" style="fill: rgb(255, 255, 255); transform-origin: 286.9170334339142px 123.51969146728516px;" id="elzrzn2ry89md" class="animable"></path><path d="M300.33,175.49a68.37,68.37,0,0,1-11.21-.91l.17-1a67.4,67.4,0,0,0,11,.9Z" style="fill: #30BCED; transform-origin: 294.72499084472656px 174.53503423929214px;" id="elv7j3gz3ii6g" class="animable"></path><path d="M321,185.85l.53-1.08a19.55,19.55,0,0,0,1.05-13.07,62.46,62.46,0,0,1-12,3l-.15-1a61.45,61.45,0,0,0,12.28-3.16l.5-.18.15.5a21,21,0,0,1-.47,13.21c12.29-4.89,25.12-22.25,25.12-42.93,0-18.36-21.41-33.3-47.73-33.3s-47.72,14.94-47.72,33.3c0,13.35,11.37,25.38,29,30.64l-.29,1c-18-5.39-29.68-17.79-29.68-31.6,0-18.91,21.86-34.3,48.72-34.3s48.73,15.39,48.73,34.3c0,21.74-14,39.91-26.9,44.28Z" style="fill: #30BCED; transform-origin: 300.3149719238281px 146.36500549316406px;" id="el2iozzi2lm5k" class="animable"></path><g id="elg8f4a1jqzj"><rect x="313.33" y="118.1" width="42.64" height="28.96" rx="4.4" style="fill: #30BCED; transform-origin: 334.65px 132.57999999999998px; transform: rotate(-10.13deg);" class="animable" id="elltfmhkn8snn"></rect></g><polygon points="340.76 131.49 328.96 127.23 331.17 139.57 340.76 131.49" style="fill: rgb(255, 255, 255); transform-origin: 334.86000061035156px 133.40000534057617px;" id="ely5dtav6qm2" class="animable"></polygon></g><g id="freepik--Character--inject-66" style="transform-origin: 196.92899322509766px 278.6164093017578px;" class="animable"><rect x="127.11" y="296.67" width="91.34" height="10.91" rx="3.19" style="fill: #30BCED; transform-origin: 172.78px 302.125px;" id="elcw5gz5y6iga" class="animable"></rect><polygon points="214.3 410.24 216.83 410.24 213.92 307.58 210.41 307.58 214.3 410.24" style="fill: #30BCED; transform-origin: 213.62000274658203px 358.9099884033203px;" id="el4u6hpo5s1by" class="animable"></polygon><g id="eln1rmi2uxhqr"><polygon points="214.3 410.24 216.83 410.24 213.92 307.58 210.41 307.58 214.3 410.24" style="fill: rgb(255, 255, 255); opacity: 0.30000000000000004; transform-origin: 213.62000274658203px 358.9099884033203px;" class="animable" id="elxvhytxr3f6"></polygon></g><polygon points="190.97 410.24 188.44 410.24 191.36 307.58 194.86 307.58 190.97 410.24" style="fill: #30BCED; transform-origin: 191.6500015258789px 358.9099884033203px;" id="elzje55l15sdg" class="animable"></polygon><g id="eladkvqni2wal"><polygon points="190.97 410.24 188.44 410.24 191.36 307.58 194.86 307.58 190.97 410.24" style="fill: rgb(255, 255, 255); opacity: 0.30000000000000004; transform-origin: 191.6500015258789px 358.9099884033203px;" class="animable" id="elh5eljh0ceij"></polygon></g><polygon points="154.59 410.24 157.13 410.24 154.21 307.58 150.7 307.58 154.59 410.24" style="fill: #30BCED; transform-origin: 153.91500091552734px 358.9099884033203px;" id="eleim58pzvhz" class="animable"></polygon><g id="el4hr36zvmmt6"><polygon points="154.59 410.24 157.13 410.24 154.21 307.58 150.7 307.58 154.59 410.24" style="fill: rgb(255, 255, 255); opacity: 0.30000000000000004; transform-origin: 153.91500091552734px 358.9099884033203px;" class="animable" id="elbgreli128qs"></polygon></g><polygon points="131.27 410.24 128.73 410.24 131.65 307.58 135.15 307.58 131.27 410.24" style="fill: #30BCED; transform-origin: 131.93999481201172px 358.9099884033203px;" id="elz3gi1yey2aa" class="animable"></polygon><g id="elknc76lf5vp"><polygon points="131.27 410.24 128.73 410.24 131.65 307.58 135.15 307.58 131.27 410.24" style="fill: rgb(255, 255, 255); opacity: 0.30000000000000004; transform-origin: 131.93999481201172px 358.9099884033203px;" class="animable" id="elejddh27w5kd"></polygon></g><polygon points="241.31 384.15 250.33 381.1 242.91 360.04 233.9 363.09 241.31 384.15" style="fill: rgb(255, 195, 189); transform-origin: 242.11499786376953px 372.0950012207031px;" id="el1z88eu4fc8q" class="animable"></polygon><path d="M249.66,377.62,239.78,382a.6.6,0,0,0-.33.85l3.75,7.62a1.93,1.93,0,0,0,2.39.81c3.41-1.57,4.94-2.48,9.29-4.39,2.68-1.17,8.07-3.26,11.41-5.41s.72-5.25-.92-4.63c-3.89,1.48-10.36,1.42-13.9.66A3,3,0,0,0,249.66,377.62Z" style="fill: rgb(38, 50, 56); transform-origin: 253.64146614074707px 384.0958242416382px;" id="elypnr4ruqha" class="animable"></path><g id="el5wv0dt82zll"><polygon points="233.9 363.1 242.92 360.04 247.15 372.09 237.98 374.71 233.9 363.1" style="opacity: 0.2; transform-origin: 240.52499389648438px 367.375px;" class="animable" id="elblfbmphilbe"></polygon></g><path d="M177.42,268.19s45,8.12,48.63,22.9c7.13,29.22,23.21,74.92,23.21,74.92l-17.12,5s-24.48-52.41-27.56-70.05c-25.25,0-56,2-60-8.68-3.51-9.48-2.26-24.05-2.26-24.05Z" style="fill: rgb(38, 50, 56); transform-origin: 195.68186950683594px 319.6000061035156px;" id="elw75kkt36bc" class="animable"></path><polygon points="231.2 374 251.2 367.4 249.49 358.37 227.68 366.05 231.2 374" style="fill: #30BCED; transform-origin: 239.43999481201172px 366.18499755859375px;" id="eltbklafoyisp" class="animable"></polygon><polygon points="202.11 387.35 212.07 388.11 206.22 363.53 196.93 365.63 202.11 387.35" style="fill: rgb(255, 195, 189); transform-origin: 204.5px 375.8199920654297px;" id="elzziobkzheh" class="animable"></polygon><path d="M211.82,385.71l-10.73-1.19a.61.61,0,0,0-.72.58l-.56,8.48a2,2,0,0,0,1.67,1.89c3.73.35,5.52.32,10.24.84,2.9.32,8.62,1.21,12.59,1s3.25-4.2,1.51-4.47c-4.11-.67-9.67-3.95-12.36-6.38A2.93,2.93,0,0,0,211.82,385.71Z" style="fill: rgb(38, 50, 56); transform-origin: 213.5133399963379px 390.9258089065552px;" id="elj0kds88yu3a" class="animable"></path><g id="elellnoiojuc"><polygon points="196.93 365.64 206.22 363.54 209.17 375.96 199.78 377.61 196.93 365.64" style="opacity: 0.2; transform-origin: 203.04999542236328px 370.5749969482422px;" class="animable" id="el5nytw6ypj9"></polygon></g><path d="M154,268.19s54.71,8.19,52.2,28.9c-3.61,29.86,5.66,73.05,5.66,73.05l-17.55,3.14s-12.9-53.68-13-71.59c-17.8,0-48.9,1.27-52.88-9.45-3.51-9.48-2.26-24.05-2.26-24.05Z" style="fill: rgb(38, 50, 56); transform-origin: 168.9068489074707px 320.7350158691406px;" id="elioju9tv5or" class="animable"></path><polygon points="193.1 376.2 213.69 371.72 212.93 362.57 190.43 367.92 193.1 376.2" style="fill: #30BCED; transform-origin: 202.05999755859375px 369.385009765625px;" id="elv4mnh1hn37" class="animable"></polygon><path d="M182.86,210.64c1.46,5.72,2.89,11.49,4.29,17.24s2.77,11.51,4.22,17.19l1.09,4.23.56,2.08.29,1,0,.13,0,.06s0-.09-.05-.13a3.66,3.66,0,0,0-.28-.59l-.15-.23-.11-.15-.2-.22c-.21-.2-.24-.17-.19-.12a1.89,1.89,0,0,0,.36.29,10.88,10.88,0,0,0,1.38.79c1.08.53,2.34,1,3.63,1.52,5.2,1.93,10.94,3.57,16.52,5.34l-.88,6.38a90.82,90.82,0,0,1-9.2-.36,81.94,81.94,0,0,1-9.27-1.3,40.56,40.56,0,0,1-4.86-1.26,21.9,21.9,0,0,1-2.69-1.06,12.5,12.5,0,0,1-1.55-.86,10.26,10.26,0,0,1-1.89-1.55c-.18-.2-.35-.39-.55-.65l-.28-.38-.28-.47a7.55,7.55,0,0,1-.53-1.1l-.16-.46-.39-1.1-.75-2.18c-.49-1.45-1-2.9-1.41-4.34-1.81-5.78-3.46-11.53-5-17.32s-3-11.57-4.34-17.43Z" style="fill: rgb(255, 195, 189); transform-origin: 192.20499420166016px 238.04805946350098px;" id="elj2wpp1j0vl" class="animable"></path><path d="M168.8,203.72c5.49-6.12,14.19-1.84,17.86,11.86,1.78,6.66,1.22,10.14,1.22,10.14l-18.94,5.84C164.87,222.56,161.33,212.06,168.8,203.72Z" style="fill: #30BCED; transform-origin: 176.20040798187256px 216.2767333984375px;" id="ell7genhan9gb" class="animable"></path><g id="el45cpa9k6kl6"><g style="opacity: 0.2; transform-origin: 176.20040798187256px 216.2767333984375px;" class="animable" id="elhv30maz6hwk"><path d="M168.8,203.72c5.49-6.12,14.19-1.84,17.86,11.86,1.78,6.66,1.22,10.14,1.22,10.14l-18.94,5.84C164.87,222.56,161.33,212.06,168.8,203.72Z" id="el9bpxkun5w0s" style="transform-origin: 176.20040798187256px 216.2767333984375px;" class="animable"></path></g></g><path d="M224.15,256.5l-1.7-.52a7.93,7.93,0,0,0-3.18-.29l-3.65.43a8.59,8.59,0,0,0-5.57,4.27l-1.24,2.42c.62,4.46,9.66,3,9.66,3H227l-.28-6.06A3.61,3.61,0,0,0,224.15,256.5Z" style="fill: rgb(255, 195, 189); transform-origin: 217.90499877929688px 260.83954334259033px;" id="elsfll8muzvxq" class="animable"></path><path d="M230,246.74A9,9,0,0,1,228,251.2c-.91,1.33-1.85,2.65-2.8,4-1.91,2.61-3.86,5.18-6,7.63a.58.58,0,0,1-.95-.65c1.48-2.9,3.15-5.66,4.86-8.4q1.29-2.05,2.64-4.07a9.11,9.11,0,0,1,3.37-3.56.66.66,0,0,1,1,.64Z" style="fill: rgb(38, 50, 56); transform-origin: 224.15498781204224px 254.53938007354736px;" id="elqmnbfpc8hm" class="animable"></path><path d="M170.07,197.79l-10.67-3-13.73-.64a9.51,9.51,0,0,0-9.49,6.56c-2.62,8-5,19.52-6.78,29.49a231.8,231.8,0,0,0-3.21,38h51.23c1.05-28.45,4.4-42.35,6.38-52.42a13.72,13.72,0,0,0-7.55-15Z" style="fill: #30BCED; transform-origin: 155.1219425201416px 231.16973114013672px;" id="elvcwv1x1n33k" class="animable"></path><path d="M155.76,199.79c1.3,3.34,6.33,10.48,12.18,13.27,3.25-2.35,3.95-7.48,4.44-9.88Z" style="fill: rgb(255, 255, 255); transform-origin: 164.06999969482422px 206.42499542236328px;" id="elxih44og02t" class="animable"></path><path d="M172.38,203.18a5.2,5.2,0,0,0-.44-3.94c-.83-1.3-.62-2.79.21-4.32a14.91,14.91,0,0,1,2.45-3.33l-6.71-7.85-5.47-6.34c-.47,5.93-.93,13.28-5.61,17.88-1.65,1.63-2,2.12-1.05,4.51,1.3,3.34,6,8,11.8,10.79A11.37,11.37,0,0,0,172.38,203.18Z" style="fill: rgb(255, 195, 189); transform-origin: 164.919659614563px 193.98997497558594px;" id="elg9p50mq821" class="animable"></path><g id="eld15tjtoovoc"><path d="M172.54,190.24l-3.79-6.15c-.07.16-.16.33-.25.51a14.39,14.39,0,0,0-.82,2.36c-.69,2.73,1.63,6.63,4.17,8.49.11-.17.2-.35.3-.53a18.68,18.68,0,0,1,2.29-3.23,1,1,0,0,1,.16-.1Z" style="opacity: 0.2; transform-origin: 171.07839035987854px 189.77001190185547px;" class="animable" id="elepn88jyy9a"></path></g><path d="M185.78,175.54c.88,5.67,9-8.92,4.46-12.12C184.7,159.5,184.12,164.75,185.78,175.54Z" style="fill: rgb(38, 50, 56); transform-origin: 188.28673577308655px 169.48028755187988px;" id="eljpbrrl05bfh" class="animable"></path><path d="M162.67,168.14c-.52,9.21-1.31,14.56,2.92,19.88,6.36,8,18.57,5.36,21.94-3.45,3-7.94,3.37-21.66-5.48-26.52S163.19,158.94,162.67,168.14Z" style="fill: rgb(255, 195, 189); transform-origin: 175.8496379852295px 174.54244422912598px;" id="elveezurzgnmq" class="animable"></path><path d="M180.82,162.61s5.89,5.78,10.09,3.39,5.05-8.58,0-14c-2.43-2.61-6.11-5.16-13.33-5a5.56,5.56,0,0,0,2,1.25s-9.16-1.53-15.54,1.1a5.86,5.86,0,0,0,2,1.86c-6.21-.47-12.25,2-8,7.83-5.63.55-6.89,7.75-3.89,12.5s3.53,8.31,7.54,10.47c0-6.47,1.49-8,1.49-8,2.89-1.23,6.22-7.39,5.55-10.5C174.91,166,181.5,166.82,180.82,162.61Z" style="fill: rgb(38, 50, 56); transform-origin: 173.4781551361084px 164.50142669677734px;" id="elcci0wnw79g" class="animable"></path><path d="M159.52,158.83a12.7,12.7,0,0,1-4.39-5.55c-.72,3.22,2.61,6.89,2.61,6.89Z" style="fill: rgb(38, 50, 56); transform-origin: 157.27403044700623px 156.7249984741211px;" id="el2bas3k7lcnb" class="animable"></path><path d="M158.07,173.17a8.76,8.76,0,0,0,2.33,5.67c1.91,2,4.51.3,5-2.27.4-2.31-.58-5.84-3-6.88S158,170.59,158.07,173.17Z" style="fill: rgb(255, 195, 189); transform-origin: 161.77749466896057px 174.5607886314392px;" id="elr4axx53n5d" class="animable"></path><path d="M177.75,172.89c-.15.76.12,1.47.61,1.59s1-.4,1.17-1.16-.12-1.47-.61-1.59S177.9,172.14,177.75,172.89Z" style="fill: rgb(38, 50, 56); transform-origin: 178.64375162124634px 173.1051218509674px;" id="el0vcvm2pbi7p" class="animable"></path><path d="M186.25,174.92c-.16.76.12,1.46.61,1.58s1-.4,1.17-1.16-.13-1.47-.62-1.58S186.4,174.16,186.25,174.92Z" style="fill: rgb(38, 50, 56); transform-origin: 187.14138996601105px 175.13115203380585px;" id="el4uniy8d90q5" class="animable"></path><path d="M183.42,174.86a24.57,24.57,0,0,0,1.52,6.36c-1.4.71-3.16-.36-3.16-.36Z" style="fill: rgb(237, 132, 126); transform-origin: 183.36000061035156px 178.16164422035217px;" id="elqnljcmiqh8" class="animable"></path><path d="M180.21,185.11a6.66,6.66,0,0,1-4.29-3,.23.23,0,1,1,.4-.22,6.37,6.37,0,0,0,4.82,2.88.21.21,0,0,1,.2.24.22.22,0,0,1-.24.21A7.55,7.55,0,0,1,180.21,185.11Z" style="fill: rgb(38, 50, 56); transform-origin: 178.6092758178711px 183.48305428028107px;" id="elu57dujopr3j" class="animable"></path><path d="M176.63,169.83a.46.46,0,0,1-.18-.13.46.46,0,0,1,.06-.64,4.35,4.35,0,0,1,4-.9.45.45,0,1,1-.29.86,3.48,3.48,0,0,0-3.13.74A.45.45,0,0,1,176.63,169.83Z" style="fill: rgb(38, 50, 56); transform-origin: 178.5838062763214px 168.9336126446724px;" id="elg8kl75fse6" class="animable"></path><path d="M187.3,170a.55.55,0,0,1,0-.22.47.47,0,0,1,.56-.32,4.37,4.37,0,0,1,3,2.78.45.45,0,0,1-.31.56.45.45,0,0,1-.56-.31,3.43,3.43,0,0,0-2.39-2.15A.48.48,0,0,1,187.3,170Z" style="fill: rgb(38, 50, 56); transform-origin: 189.08355951309204px 171.13248944282532px;" id="elhjob6o8mgln" class="animable"></path><path d="M147.81,207.88c-1.92,5.48-3.84,11.19-5.55,16.79-.87,2.8-1.66,5.61-2.37,8.38a71.5,71.5,0,0,0-1.6,8.08c0,.3-.08.63-.09.92l0,.44c0,.14,0,.35,0,.28s-.08.06,0,.27a5.71,5.71,0,0,0,1.21,2.06,30.79,30.79,0,0,0,5.8,5,129.85,129.85,0,0,0,15.05,8.74L158.12,265a79.29,79.29,0,0,1-9.15-2.58,73.35,73.35,0,0,1-8.92-3.73,36.93,36.93,0,0,1-8.7-5.91,16.88,16.88,0,0,1-3.92-5.41,11.88,11.88,0,0,1-1-4.16c0-.45,0-.61,0-.85v-.7c0-.47,0-.9,0-1.35a67.72,67.72,0,0,1,1.25-9.91c.6-3.16,1.35-6.22,2.16-9.26a178.07,178.07,0,0,1,5.81-17.82Z" style="fill: rgb(255, 195, 189); transform-origin: 143.34499740600586px 234.1599884033203px;" id="elli4sanyrqpm" class="animable"></path><path d="M145,194.09c9.78-.09,11.63,7.52,6.31,19.58A68.82,68.82,0,0,1,143.89,226l-16.17-8.59C129.88,207.78,133.83,194.19,145,194.09Z" style="fill: #30BCED; transform-origin: 140.9764003753662px 210.04459953308105px;" id="elc0ou67tcpv5" class="animable"></path><path d="M172,257.88l-3.58-2a3.14,3.14,0,0,0-1.92-.36l-4.3.6c-2.89.3-5,2.51-6.57,4.43l-1.83,2.24c-.09,4.52,11.33,3.46,11.33,3.46l10-.13-.31-3.94A5.44,5.44,0,0,0,172,257.88Z" style="fill: rgb(255, 195, 189); transform-origin: 164.46471881866455px 260.9255609512329px;" id="el3qqpprmsfoy" class="animable"></path></g><g id="freepik--Desk--inject-66" style="transform-origin: 249.99500274658203px 312.06400299072266px;" class="animable"><rect x="114.65" y="263.89" width="270.69" height="12.67" style="fill: #30BCED; transform-origin: 249.995px 270.22499999999997px;" id="ela76xe8mhadh" class="animable"></rect><g id="elgw9zm0laixl"><rect x="114.65" y="263.89" width="87.8" height="12.67" style="fill: rgb(255, 255, 255); opacity: 0.30000000000000004; transform-origin: 158.55px 270.22499999999997px;" class="animable" id="elxyrxefr4qxn"></rect></g><rect x="117.76" y="276.56" width="4.14" height="139.68" style="fill: #30BCED; transform-origin: 119.83px 346.4px;" id="elhb6b072q41m" class="animable"></rect><g id="elmrxrq8tgdmf"><rect x="117.76" y="276.56" width="4.14" height="139.68" style="fill: rgb(255, 255, 255); opacity: 0.7000000000000001; transform-origin: 119.83px 346.4px;" class="animable" id="elkl4qpg05bif"></rect></g><rect x="195.21" y="276.56" width="4.14" height="139.68" style="fill: #30BCED; transform-origin: 197.28px 346.4px;" id="elorlu75ni43" class="animable"></rect><g id="el5ymeh83liyf"><rect x="195.21" y="276.56" width="4.14" height="139.68" style="fill: rgb(255, 255, 255); opacity: 0.7000000000000001; transform-origin: 197.28px 346.4px;" class="animable" id="eln58cvu2gy7j"></rect></g><rect x="300.65" y="276.56" width="4.14" height="139.68" style="fill: #30BCED; transform-origin: 302.71999999999997px 346.4px;" id="el6r9kq02wo7" class="animable"></rect><g id="elbjxiua7h70o"><rect x="300.65" y="276.56" width="4.14" height="139.68" style="fill: rgb(255, 255, 255); opacity: 0.7000000000000001; transform-origin: 302.71999999999997px 346.4px;" class="animable" id="elxkpbgn3amf8"></rect></g><rect x="378.1" y="276.56" width="4.14" height="139.68" style="fill: #30BCED; transform-origin: 380.17px 346.4px;" id="elkyci443rj9" class="animable"></rect><g id="elkpvb22xzrpl"><rect x="378.1" y="276.56" width="4.14" height="139.68" style="fill: rgb(255, 255, 255); opacity: 0.7000000000000001; transform-origin: 380.17px 346.4px;" class="animable" id="eleq9u8eganf8"></rect></g><path d="M356,207.89H282a5.6,5.6,0,0,0-5.3,4.55l-7.72,46.89a3.78,3.78,0,0,0,3.8,4.56h74a5.6,5.6,0,0,0,5.31-4.56l7.72-46.89A3.77,3.77,0,0,0,356,207.89Z" style="fill: rgb(38, 50, 56); transform-origin: 314.3951835632324px 235.88969612121582px;" id="el9vunln7lru5" class="animable"></path><rect x="238.51" y="260.83" width="71.33" height="3.06" rx="0.83" style="fill: rgb(38, 50, 56); transform-origin: 274.175px 262.35999999999996px;" id="elp9qq51yfht" class="animable"></rect><g id="elr4wfk06lpk"><path d="M356,207.89H283.62a5.6,5.6,0,0,0-5.3,4.55l-7.72,46.89a3.77,3.77,0,0,0,3.8,4.56h72.33a5.6,5.6,0,0,0,5.31-4.56l7.72-46.89A3.77,3.77,0,0,0,356,207.89Z" style="fill: rgb(255, 255, 255); opacity: 0.2; transform-origin: 315.17884063720703px 235.8905258178711px;" class="animable" id="eluk7c5pl9ux"></path></g><path d="M164.46,260.83s23.83,3.55,35.33-1.14c5.38,2.59,24.54,3.87,31.21,1.14-2.06,2.39-6.9,3.06-6.9,3.06H173.83C169,263.89,165.31,261.78,164.46,260.83Z" style="fill: #30BCED; transform-origin: 197.7300033569336px 261.78997802734375px;" id="elu15zin5km9p" class="animable"></path><g id="el3o4gnexqvuv"><path d="M164.46,260.83s23.83,3.55,35.33-1.14c5.38,2.59,24.54,3.87,31.21,1.14-2.06,2.39-6.9,3.06-6.9,3.06H173.83C169,263.89,165.31,261.78,164.46,260.83Z" style="fill: rgb(255, 255, 255); opacity: 0.7000000000000001; transform-origin: 197.7300033569336px 261.78997802734375px;" class="animable" id="elyskqsncerla"></path></g></g><defs>     <filter id="active" height="200%">         <feMorphology in="SourceAlpha" result="DILATED" operator="dilate" radius="2"></feMorphology>                <feFlood flood-color="#32DFEC" flood-opacity="1" result="PINK"></feFlood>        <feComposite in="PINK" in2="DILATED" operator="in" result="OUTLINE"></feComposite>        <feMerge>            <feMergeNode in="OUTLINE"></feMergeNode>            <feMergeNode in="SourceGraphic"></feMergeNode>        </feMerge>    </filter>    <filter id="hover" height="200%">        <feMorphology in="SourceAlpha" result="DILATED" operator="dilate" radius="2"></feMorphology>                <feFlood flood-color="#ff0000" flood-opacity="0.5" result="PINK"></feFlood>        <feComposite in="PINK" in2="DILATED" operator="in" result="OUTLINE"></feComposite>        <feMerge>            <feMergeNode in="OUTLINE"></feMergeNode>            <feMergeNode in="SourceGraphic"></feMergeNode>        </feMerge>            <feColorMatrix type="matrix" values="0   0   0   0   0                0   1   0   0   0                0   0   0   0   0                0   0   0   1   0 "></feColorMatrix>    </filter></defs></svg>